<?xml version="1.0" encoding="utf-8"?>
<!-- Generator: Adobe Illustrator 28.0.0, SVG Export Plug-In . SVG Version: 6.00 Build 0)  -->
<svg version="1.1" id="Capa_1" xmlns="http://www.w3.org/2000/svg" xmlns:xlink="http://www.w3.org/1999/xlink" x="0px" y="0px"
	 viewBox="0 0 512 512" style="enable-background:new 0 0 512 512;" xml:space="preserve">
<style type="text/css">
	.st0{fill:#48BDA6;}
</style>
<g>
	<path class="st0" d="M443.29,3.85h-15.43c-4.14,0-7.5,3.36-7.5,7.5s3.36,7.5,7.5,7.5h15.43c29.62,0,53.71,24.09,53.71,53.71v96.98
		c0,29.62-24.09,53.72-53.71,53.72H314.45c-3.04-7.64-9.4-13.34-17.51-15.51l-56.62-15.17c-9.14-2.45-18.59,0.08-25.29,6.77
		c-6.33,6.33-8.93,15.14-7.12,23.82c-28.2-1.59-50.65-25.03-50.65-53.63V72.56c0-29.62,24.09-53.71,53.71-53.71h186.89
		c4.14,0,7.5-3.36,7.5-7.5s-3.36-7.5-7.5-7.5H210.97c-35.23,0-64.33,26.65-68.25,60.85H72.75C32.64,64.7,0,97.34,0,137.45V357.6
		c0,33.99,23.09,63.12,56.15,70.84c0.57,0.13,1.15,0.2,1.71,0.2c3.41,0,6.49-2.34,7.3-5.8c0.94-4.03-1.56-8.07-5.6-9.01
		C33.32,407.71,15,384.59,15,357.6V137.45c0-31.84,25.91-57.75,57.75-57.75h69.51v21.28H72.75c-20.11,0-36.47,16.36-36.47,36.47
		V357.6c0,20.11,16.36,36.48,36.47,36.48H384.4c20.11,0,36.48-16.36,36.48-36.48V238.26h21.27V357.6
		c0,31.84-25.91,57.75-57.75,57.75H87.75c-4.14,0-7.5,3.36-7.5,7.5s3.36,7.5,7.5,7.5h54.51v10.47h-13.02
		c-18.56,0-33.66,15.1-33.66,33.66s15.1,33.66,33.66,33.66h198.68c18.56,0,33.66-15.1,33.66-33.66s-15.1-33.66-33.66-33.66H314.9
		v-10.47h69.51c40.11,0,72.75-32.64,72.75-72.75V236.86c31.27-6.43,54.85-34.17,54.85-67.31V72.56
		C512,34.68,481.18,3.85,443.29,3.85L443.29,3.85z M346.58,474.48c0,10.29-8.37,18.66-18.66,18.66H129.24
		c-10.29,0-18.66-8.37-18.66-18.66s8.37-18.66,18.66-18.66h198.67C338.21,455.82,346.58,464.19,346.58,474.48z M157.26,440.82
		v-10.46h142.63v10.46H157.26z M225.64,209.96c2.86-2.86,6.89-3.94,10.8-2.89l56.62,15.17c3.9,1.04,6.86,4,7.9,7.9
		c0.13,0.47,0.22,0.95,0.29,1.43c0,0.02,0.01,0.04,0.01,0.06c0.45,3.42-0.69,6.81-3.19,9.31l-2.72,2.72c-1.41,1.41-2.2,3.31-2.2,5.3
		s0.79,3.9,2.2,5.3l16.98,16.98c3.39,3.39,5.26,7.91,5.26,12.71s-1.87,9.31-5.26,12.71c-7.01,7.01-18.4,7.01-25.41,0l-16.98-16.98
		c-1.46-1.46-3.38-2.2-5.3-2.2s-3.84,0.73-5.3,2.2l-2.72,2.72c-2.86,2.86-6.89,3.94-10.8,2.89c-3.9-1.05-6.86-4-7.9-7.9
		l-15.17-56.62C221.7,216.85,222.78,212.82,225.64,209.96L225.64,209.96z M405.88,357.6c0,11.84-9.64,21.48-21.48,21.48H72.75
		c-11.84,0-21.47-9.64-21.47-21.48V137.45c0-11.84,9.63-21.47,21.47-21.47h69.51v53.56c0,37.89,30.82,68.72,68.71,68.72h0.93
		l11.52,43c2.45,9.14,9.37,16.06,18.51,18.51c7.95,2.13,16.13,0.49,22.52-4.36l11.85,11.85c6.43,6.43,14.87,9.64,23.31,9.64
		s16.89-3.21,23.31-9.64c6.23-6.23,9.66-14.51,9.66-23.31s-3.43-17.08-9.66-23.31l-11.85-11.85c2.39-3.15,4-6.74,4.77-10.52h90.03
		V357.6H405.88z"/>
	<path class="st0" d="M242.84,73.31c-1.49-3.61-4.97-5.94-8.87-5.94h-0.01c-3.91,0-7.39,2.34-8.87,5.96
		c-0.02,0.06-0.04,0.11-0.07,0.17l-34.69,91.07c-1.48,3.87,0.47,8.2,4.34,9.68c3.87,1.48,8.2-0.47,9.68-4.34l6.8-17.85h45.38
		l6.73,17.83c1.13,3,3.99,4.85,7.02,4.85c0.88,0,1.77-0.16,2.65-0.49c3.88-1.46,5.83-5.79,4.37-9.66l-34.37-91.07
		C242.9,73.45,242.87,73.38,242.84,73.31L242.84,73.31z M216.86,137.06l17.08-44.84l16.92,44.84H216.86z"/>
	<path class="st0" d="M307.9,68.74c-1.99,0-3.9,0.79-5.31,2.2s-2.2,3.32-2.19,5.31c0,0,0.07,34.49,0.07,44.71
		c0,12.32,0.12,44.62,0.12,44.94c0.01,1.99,0.8,3.9,2.22,5.3c1.4,1.4,3.3,2.18,5.28,2.18h0.03c0.77,0,18.84-0.07,26.05-0.2
		c12.65-0.22,23.91-5.95,31.71-16.13c7.17-9.36,11.12-22.14,11.12-35.99c0-31.29-17.56-52.32-43.7-52.32L307.9,68.74L307.9,68.74z
		 M361.99,121.06c0,21.57-11.55,36.83-28.09,37.12c-4.18,0.07-12.31,0.13-18.34,0.16c-0.03-10.37-0.09-28.77-0.09-37.38
		c0-7.21-0.03-26.47-0.05-37.22h17.87C347.16,83.74,361.99,93.54,361.99,121.06z"/>
	<path class="st0" d="M419.9,83.5c15.19-4.58,28.85,6.37,29.15,6.62c3.17,2.64,7.89,2.23,10.54-0.93c2.67-3.17,2.26-7.9-0.92-10.57
		c-0.8-0.68-19.95-16.46-43.11-9.48c-11.23,3.38-19.16,12.17-20.71,22.93c-1.44,10,2.89,19.62,11.3,25.1
		c0.33,0.22,0.68,0.4,1.04,0.57c0.53,0.24,13.13,5.85,27.33,11.08c10.58,3.9,15.94,10.13,14.69,17.08
		c-1.2,6.71-8.66,13.84-20.12,13.84c-10.3,0-20.26-4.2-26.63-11.23c-2.78-3.07-7.52-3.3-10.59-0.52s-3.3,7.52-0.52,10.59
		c9.17,10.12,23.28,16.16,37.75,16.16c17.22,0,32.22-11.26,34.89-26.2c3.07-17.18-10.52-28.72-24.27-33.79
		c-12.01-4.43-23.14-9.27-25.81-10.44c-3.22-2.32-4.79-6.06-4.21-10.1C410.44,89.21,414.24,85.21,419.9,83.5L419.9,83.5z"/>
</g>
</svg>
