<?xml version="1.0" encoding="utf-8"?>
<!-- Generator: Adobe Illustrator 28.0.0, SVG Export Plug-In . SVG Version: 6.00 Build 0)  -->
<svg version="1.1" id="Layer_1" xmlns="http://www.w3.org/2000/svg" xmlns:xlink="http://www.w3.org/1999/xlink" x="0px" y="0px"
	 viewBox="0 0 512 512" style="enable-background:new 0 0 512 512;" xml:space="preserve">
<style type="text/css">
	.st0{fill:#0C5464;}
</style>
<path class="st0" d="M208,456c-4.42-0.01-7.99-3.6-7.98-8.02c0.01-3.9,2.83-7.22,6.67-7.87l96-16c4.37-0.62,8.43,2.42,9.05,6.79
	c0.6,4.23-2.22,8.18-6.41,8.99l-96,16C208.89,455.96,208.45,456,208,456z"/>
<path class="st0" d="M208,432c-4.42-0.01-7.99-3.6-7.98-8.02c0.01-3.9,2.83-7.22,6.67-7.87l96-16c4.37-0.62,8.43,2.42,9.05,6.79
	c0.6,4.23-2.22,8.18-6.41,8.99l-96,16C208.89,431.96,208.45,432,208,432z"/>
<path class="st0" d="M208,480c-4.42-0.01-7.99-3.6-7.98-8.02c0.01-3.9,2.83-7.22,6.67-7.87l96-16c4.37-0.62,8.43,2.42,9.05,6.79
	c0.6,4.23-2.22,8.18-6.41,8.99l-96,16C208.89,479.96,208.45,480,208,480z"/>
<path class="st0" d="M256,512c-22.08-0.03-39.97-17.92-40-40c0-4.42,3.58-8,8-8s8,3.58,8,8c0,13.25,10.75,24,24,24
	c13.25,0,24-10.75,24-24v-8c0-4.42,3.58-8,8-8s8,3.58,8,8v8C295.97,494.08,278.08,511.97,256,512z"/>
<path class="st0" d="M256,40c-4.42,0-8-3.58-8-8V8c0-4.42,3.58-8,8-8s8,3.58,8,8v24C264,36.42,260.42,40,256,40z"/>
<path class="st0" d="M164,64.66c-2.86,0-5.51-1.52-6.94-4l-12-20.8c-2.21-3.83-0.9-8.72,2.93-10.93c3.83-2.21,8.72-0.9,10.93,2.93
	l12,20.8c2.21,3.83,0.9,8.72-2.93,10.93C166.78,64.29,165.4,64.66,164,64.66z"/>
<path class="st0" d="M96.65,132c-1.4,0-2.78-0.37-4-1.07l-20.8-12c-3.83-2.21-5.14-7.1-2.93-10.93s7.1-5.14,10.93-2.93l20.8,12
	c3.83,2.2,5.15,7.09,2.95,10.92C102.17,130.47,99.52,132,96.65,132z"/>
<path class="st0" d="M72,224H48c-4.42,0-8-3.58-8-8s3.58-8,8-8h24c4.42,0,8,3.58,8,8S76.42,224,72,224z"/>
<path class="st0" d="M436.12,328c-1.4,0-2.78-0.37-4-1.07l-20.8-12c-3.84-2.18-5.18-7.07-3-10.91c2.18-3.84,7.07-5.18,10.91-3
	c0.03,0.02,0.06,0.04,0.09,0.05l20.8,12c3.83,2.21,5.14,7.1,2.93,10.93C441.62,326.48,438.98,328,436.12,328L436.12,328z"/>
<path class="st0" d="M464,224h-24c-4.42,0-8-3.58-8-8s3.58-8,8-8h24c4.42,0,8,3.58,8,8S468.42,224,464,224z"/>
<path class="st0" d="M415.35,132c-4.42,0.01-8.01-3.57-8.01-7.99c0-2.87,1.53-5.52,4.01-6.95l20.8-12c3.83-2.21,8.72-0.9,10.93,2.93
	s0.9,8.72-2.93,10.93l-20.8,12C418.14,131.63,416.76,132,415.35,132z"/>
<path class="st0" d="M348,64.66c-4.42,0-8-3.58-8-8c0-1.4,0.37-2.78,1.07-4l12-20.8c2.21-3.83,7.1-5.14,10.93-2.93
	s5.14,7.1,2.93,10.93l-12,20.8C353.51,63.13,350.86,64.66,348,64.66z"/>
<path class="st0" d="M272,352h-32c-3.57,0-6.71-2.37-7.69-5.8l-32-112c-1.21-4.25,1.25-8.68,5.5-9.89c2.79-0.79,5.79-0.02,7.84,2.03
	c5.25,4,11.75,6.01,18.34,5.66c6.62,0.35,13.15-1.69,18.4-5.74c3.13-2.95,8.01-2.95,11.14,0c5.27,4.06,11.81,6.1,18.46,5.74
	c6.62,0.35,13.15-1.69,18.4-5.74c2.63-2.48,6.59-2.9,9.69-1.03c3.07,1.86,4.52,5.52,3.57,8.98l-32,112
	C278.68,349.62,275.56,351.98,272,352z M246.03,336h19.94l25.5-89.25c-3.76,0.84-7.61,1.26-11.46,1.25c-8.41,0.15-16.7-1.97-24-6.14
	c-7.3,4.17-15.59,6.29-24,6.14c-3.86,0.01-7.7-0.41-11.46-1.25L246.03,336z"/>
<path class="st0" d="M208,408c-4.42,0-8-3.58-8-8v-25.6c-26.97-9.51-51.07-25.76-70-47.2c-2.92-3.31-2.61-8.37,0.7-11.3
	c3.31-2.92,8.37-2.61,11.3,0.7c18.32,20.77,41.97,36.12,68.4,44.39c3.34,1.05,5.6,4.14,5.6,7.64v21.91l80-13.33v-8.58
	c0-3.5,2.26-6.59,5.6-7.64c2.56-0.8,5.09-1.66,7.59-2.59c4.14-1.55,8.75,0.56,10.3,4.7c1.55,4.14-0.56,8.75-4.7,10.3
	c-0.93,0.34-1.86,0.68-2.79,1.01V384c0,3.91-2.83,7.24-6.68,7.89l-96,16C208.88,407.96,208.44,408,208,408z"/>
<path class="st0" d="M392,308.38c-1.49,0-2.95-0.42-4.22-1.21c-3.75-2.33-4.9-7.26-2.57-11.02
	c34.84-56.28,29.31-128.62-13.68-178.95c-2.96-3.28-2.7-8.34,0.59-11.3c3.28-2.96,8.34-2.7,11.3,0.59c0.09,0.1,0.18,0.21,0.27,0.31
	c47.53,55.63,53.63,135.61,15.1,197.81C397.33,306.95,394.76,308.38,392,308.38z"/>
<path class="st0" d="M96.18,232c-4.27,0.01-7.79-3.34-8-7.61C88.07,221.6,88,218.82,88,216c-0.01-92.78,75.19-168.01,167.97-168.03
	c40.05-0.01,78.79,14.3,109.23,40.33c3.36,2.87,3.75,7.92,0.88,11.28s-7.92,3.75-11.28,0.88c-63.79-54.57-159.74-47.08-214.31,16.71
	c-23.56,27.54-36.5,62.59-36.49,98.83c0,2.55,0.06,5.09,0.18,7.61c0.22,4.41-3.18,8.17-7.59,8.39c0,0-0.01,0-0.01,0H96.18z"/>
<path class="st0" d="M368,408c-3.8,0-7.08-2.67-7.84-6.4c-2-9.87-10.7-36.66-26.69-41.98c-4.2-1.38-6.48-5.9-5.1-10.1
	c0.79-2.41,2.69-4.31,5.1-5.1c16-5.33,24.69-32.11,26.69-41.98c0.88-4.33,5.1-7.13,9.43-6.25c3.15,0.64,5.61,3.1,6.25,6.25
	c2,9.87,10.7,36.66,26.69,41.98c4.2,1.38,6.48,5.9,5.1,10.1c-0.79,2.41-2.69,4.31-5.1,5.1c-16,5.33-24.69,32.11-26.69,41.98
	C375.08,405.33,371.8,408,368,408z M351.56,352c7.02,6.49,12.62,14.37,16.44,23.14c3.82-8.77,9.42-16.64,16.44-23.14
	c-7.02-6.49-12.62-14.37-16.44-23.14C364.18,337.63,358.58,345.51,351.56,352z"/>
<path class="st0" d="M96,352c-3.8,0-7.08-2.67-7.84-6.4c-2-9.87-10.7-36.66-26.69-41.98c-4.2-1.38-6.48-5.9-5.1-10.1
	c0.79-2.41,2.69-4.31,5.1-5.1c16-5.33,24.69-32.11,26.69-41.98c0.88-4.33,5.1-7.13,9.43-6.25c3.15,0.64,5.61,3.1,6.25,6.25
	c2,9.87,10.7,36.66,26.69,41.98c4.2,1.38,6.48,5.9,5.1,10.1c-0.79,2.41-2.69,4.31-5.1,5.1c-16,5.33-24.69,32.11-26.69,41.98
	C103.08,349.33,99.8,352,96,352z M79.56,296c7.02,6.49,12.62,14.37,16.44,23.14c3.82-8.77,9.42-16.64,16.44-23.14
	c-7.02-6.49-12.62-14.37-16.44-23.14C92.18,281.63,86.58,289.51,79.56,296z"/>
<path class="st0" d="M328,224c-3.8,0-7.08-2.67-7.84-6.4c-2-9.87-10.7-36.66-26.69-41.98c-4.2-1.38-6.48-5.9-5.1-10.1
	c0.79-2.41,2.69-4.31,5.1-5.1c16-5.33,24.69-32.11,26.69-41.98c0.88-4.33,5.1-7.13,9.43-6.25c3.15,0.64,5.61,3.1,6.25,6.25
	c2,9.87,10.7,36.66,26.69,41.98c4.2,1.38,6.48,5.9,5.1,10.1c-0.79,2.41-2.69,4.31-5.1,5.1c-16,5.33-24.69,32.11-26.69,41.98
	C335.08,221.33,331.8,224,328,224z M311.56,168c7.02,6.49,12.62,14.37,16.44,23.14c3.82-8.77,9.42-16.64,16.44-23.14
	c-7.02-6.49-12.62-14.37-16.44-23.14C324.18,153.63,318.58,161.51,311.56,168z"/>
<path class="st0" d="M138.4,200c-0.54,0-1.07-0.05-1.6-0.16c-4.33-0.88-7.12-5.11-6.24-9.44c0,0,0,0,0,0
	c10.17-50.33,49.51-89.67,99.84-99.84c4.33-0.88,8.56,1.91,9.44,6.24c0.88,4.33-1.91,8.56-6.24,9.44
	c-44.05,8.88-78.48,43.31-87.36,87.36C145.48,197.33,142.2,200,138.4,200z"/>
</svg>
