<?xml version="1.0" encoding="utf-8"?>
<!-- Generator: Adobe Illustrator 28.0.0, SVG Export Plug-In . SVG Version: 6.00 Build 0)  -->
<svg version="1.1" id="Outline" xmlns="http://www.w3.org/2000/svg" xmlns:xlink="http://www.w3.org/1999/xlink" x="0px" y="0px"
	 viewBox="0 0 512 512" style="enable-background:new 0 0 512 512;" xml:space="preserve">
<style type="text/css">
	.st0{fill:#48BDA6;}
</style>
<path class="st0" d="M264,160h168c13.25,0,24,10.75,24,24v112c0,4.42,3.58,8,8,8s8-3.58,8-8V184c-0.03-22.08-17.92-39.97-40-40H264
	c-4.42,0-8,3.58-8,8S259.58,160,264,160z"/>
<path class="st0" d="M488,416h-16v-88c0-4.42-3.58-8-8-8s-8,3.58-8,8v88H304c-4.42,0-8,3.58-8,8v8h-80v-8c0-4.42-3.58-8-8-8H56V216
	c0-4.42-3.58-8-8-8s-8,3.58-8,8v200H24c-4.42,0-8,3.58-8,8v32c0.03,22.08,17.92,39.97,40,40h248c4.42,0,8-3.58,8-8s-3.58-8-8-8H56
	c-13.25,0-24-10.75-24-24v-24h168v8c0,4.42,3.58,8,8,8h96c4.42,0,8-3.58,8-8v-8h168v24c0,13.25-10.75,24-24,24H336
	c-4.42,0-8,3.58-8,8s3.58,8,8,8h120c22.08-0.03,39.97-17.92,40-40v-32C496,419.58,492.42,416,488,416z"/>
<circle class="st0" cx="416" cy="456" r="8"/>
<circle class="st0" cx="448" cy="456" r="8"/>
<circle class="st0" cx="64" cy="456" r="8"/>
<circle class="st0" cx="96" cy="456" r="8"/>
<path class="st0" d="M72,200h2.78l10.56,58.12c2.66,14.48,16.55,24.06,31.03,21.41c14.48-2.66,24.06-16.55,21.41-31.03
	c-0.13-0.73-0.3-1.45-0.49-2.17l-11.92-43.72c19.81,3.39,38.87,10.21,56.34,20.15l10.82,6.18c2.74,12.97,15.48,21.26,28.45,18.51
	c11.08-2.35,19.02-12.12,19.03-23.45v-96c0-4.42-3.58-8-8-8s-8,3.58-8,8v96c0,4.42-3.58,8-8,8s-8-3.58-8-8V80c0-4.42,3.58-8,8-8
	s8,3.58,8,8v16c0,4.42,3.58,8,8,8s8-3.58,8-8V80c-0.02-13.25-10.78-23.99-24.03-23.97c-11.33,0.02-21.1,7.95-23.45,19.03
	l-10.82,6.18C155.6,96.15,126.06,103.99,96,104H72c-26.51,0-48,21.49-48,48S45.49,200,72,200z M121.85,250.54
	c1.3,5.74-2.3,11.45-8.04,12.76c-5.74,1.3-11.45-2.3-12.76-8.04L91.03,200H96c4.08,0,8.14,0.18,12.2,0.46L121.85,250.54z
	 M189.64,95.14l2.4-1.34v116.42l-2.4-1.34c-26.17-14.94-55.53-23.4-85.64-24.7v-64.34C134.11,118.54,163.47,110.07,189.64,95.14z
	 M72,120h16v64H72c-17.67,0-32-14.33-32-32S54.33,120,72,120z"/>
<path class="st0" d="M265.6,211.2c-2.65,3.53-1.93,8.55,1.6,11.2l32,24c3.53,2.65,8.55,1.93,11.2-1.6c2.65-3.53,1.93-8.55-1.6-11.2
	l-32-24C273.27,206.95,268.25,207.67,265.6,211.2L265.6,211.2z"/>
<path class="st0" d="M325.47,207.58c4.2,1.4,8.73-0.87,10.13-5.07c1.4-4.2-0.87-8.73-5.07-10.13l0,0l-48-16
	c-4.2-1.4-8.73,0.87-10.13,5.07c-1.4,4.2,0.87,8.73,5.07,10.13L325.47,207.58z"/>
<path class="st0" d="M272,96c1.73,0,3.42-0.56,4.8-1.6l32-24c3.53-2.65,4.25-7.67,1.6-11.2s-7.67-4.25-11.2-1.6l0,0l-32,24
	c-3.53,2.65-4.25,7.67-1.6,11.2C267.11,94.81,269.48,96,272,96z"/>
<path class="st0" d="M272.42,122.53c1.4,4.19,5.92,6.45,10.11,5.06l48-16c4.2-1.4,6.47-5.93,5.07-10.13s-5.93-6.47-10.13-5.07
	l-48,16c-4.19,1.39-6.46,5.92-5.07,10.12C272.41,122.51,272.41,122.52,272.42,122.53z"/>
<path class="st0" d="M96,344c-4.42,0-8,3.58-8,8v40c0,4.42,3.58,8,8,8h32c4.42,0,8-3.58,8-8v-40c0-4.42-3.58-8-8-8H96z M120,384h-16
	v-24h16V384z"/>
<path class="st0" d="M200,400c4.42,0,8-3.58,8-8v-56c0-4.42-3.58-8-8-8h-32c-4.42,0-8,3.58-8,8v56c0,4.42,3.58,8,8,8s8-3.58,8-8v-48
	h16v48C192,396.42,195.58,400,200,400z"/>
<path class="st0" d="M240,296c-4.42,0-8,3.58-8,8v88c0,4.42,3.58,8,8,8h32c4.42,0,8-3.58,8-8v-88c0-4.42-3.58-8-8-8H240z M264,384
	h-16v-72h16V384z"/>
<path class="st0" d="M384,400h32c4.42,0,8-3.58,8-8V248c0-4.42-3.58-8-8-8h-32c-4.42,0-8,3.58-8,8v144
	C376,396.42,379.58,400,384,400z M392,256h16v128h-16V256z"/>
<path class="st0" d="M312,312c-4.42,0-8,3.58-8,8v72c0,4.42,3.58,8,8,8h32c4.42,0,8-3.58,8-8v-72c0-4.42-3.58-8-8-8H312z M336,384
	h-16v-56h16V384z"/>
<path class="st0" d="M400,208c0,4.42,3.58,8,8,8s8-3.58,8-8v-24c0-4.42-3.58-8-8-8h-24c-4.42,0-8,3.58-8,8s3.58,8,8,8h4.1l-79.2,72
	H216c-1.34,0-2.66,0.34-3.83,0.98L125.96,312H96c-4.42,0-8,3.58-8,8s3.58,8,8,8h32c1.34,0,2.66-0.34,3.83-0.98L218.04,280H312
	c1.99,0,3.91-0.74,5.38-2.08l82.62-75.1V208z"/>
</svg>
