<?xml version="1.0" encoding="utf-8"?>
<!-- Generator: Adobe Illustrator 28.0.0, SVG Export Plug-In . SVG Version: 6.00 Build 0)  -->
<svg version="1.1" id="Layer_1" xmlns="http://www.w3.org/2000/svg" xmlns:xlink="http://www.w3.org/1999/xlink" x="0px" y="0px"
	 viewBox="0 0 1200 607.46" style="enable-background:new 0 0 1200 607.46;" xml:space="preserve">
<style type="text/css">
	.st0{fill:#FFFFFF;}
	.st1{fill:#0C5464;}
</style>
<g>
	<path class="st0" d="M252.01,194.83c-3.64-7.27-8.15-13.19-13.55-17.77c-5.4-4.57-11.32-7.92-17.77-10.03
		c-6.45-2.11-12.61-3.17-18.47-3.17v-2.11c6.34-0.23,12.25-1.35,17.77-3.34c5.51-1.99,10.32-5.1,14.43-9.32
		c4.1-4.22,7.39-9.62,9.85-16.18c2.46-6.57,3.7-14.54,3.7-23.93c0-19-5.69-34.24-17.07-45.74C219.52,51.75,203.64,46,183.23,46
		h-79.24c-22.11,0-40.03,17.92-40.03,40.03v165.52c0,22.11,17.92,40.03,40.03,40.03h90.15c9.15,0,17.59-1.81,25.33-5.45
		c7.74-3.63,14.43-8.62,20.06-14.95c5.63-6.33,10.03-13.78,13.19-22.34c3.17-8.56,4.75-17.65,4.75-27.27
		C257.47,211.01,255.65,202.1,252.01,194.83z M117.43,91.03h53.13c7.04,0,12.55,2,16.54,5.98c3.99,3.99,5.98,9.5,5.98,16.54v10.56
		c0,7.04-2,12.55-5.98,16.54c-3.99,3.99-9.5,5.98-16.54,5.98h-53.13V91.03z M201.88,224.38c0,7.04-2.06,12.49-6.16,16.36
		c-4.11,3.87-9.68,5.81-16.71,5.81h-61.57v-56.3H179c7.04,0,12.61,1.94,16.71,5.81c4.1,3.87,6.16,9.32,6.16,16.36V224.38z"/>
	<path class="st0" d="M417.03,195.18c15.01-5.63,26.21-14.66,33.6-27.09c7.39-12.43,11.08-26.97,11.08-43.63
		c0-11.73-1.76-22.4-5.28-32.02c-3.52-9.62-8.51-17.88-14.95-24.8c-6.45-6.92-14.25-12.25-23.4-16.01
		c-9.15-3.75-19.35-5.63-30.61-5.63h-76.43c-22.11,0-40.03,17.92-40.03,40.03v205.56h53.48v-90.07h38.35l42.93,90.07h59.46
		L417.03,195.18z M406.48,132.2c0,7.98-2.29,14.02-6.86,18.12c-4.57,4.11-10.85,6.16-18.82,6.16h-56.3V92.44h56.3
		c7.97,0,14.25,2.06,18.82,6.16c4.58,4.11,6.86,10.15,6.86,18.12V132.2z"/>
	<path class="st0" d="M635.77,73.65C630.41,57.16,615.04,46,597.7,46h-8.11c-17.28,0-32.61,11.09-38.02,27.5l-71.86,218.08h54.18
		l17.59-58.41h81.98l17.59,58.41h55.59L635.77,73.65z M564.15,187.79l27.09-93.24H593l27.44,93.24H564.15z"/>
	<path class="st0" d="M881.69,46L881.69,46c-5.68,0-10.28,4.6-10.28,10.28v155.09h-1.05l-23.57-49.26l-58-100.21
		c-5.7-9.84-16.21-15.9-27.58-15.9l0,0c-22.11,0-40.03,17.92-40.03,40.03v205.56h50.32V126.22h1.05l23.57,49.26l67.2,116.11h58.41
		V86.03C921.72,63.92,903.8,46,881.69,46z"/>
	<path class="st0" d="M936.63,168.79c0,20.41,2.58,38.3,7.74,53.66c5.16,15.37,12.43,28.15,21.81,38.35
		c9.38,10.2,20.76,17.89,34.13,23.05c13.37,5.16,28.15,7.74,44.33,7.74h52.5c22.11,0,40.03-17.92,40.03-40.03V86.03
		c0-22.11-17.92-40.03-40.03-40.03h-52.5c-16.19,0-30.96,2.58-44.33,7.74c-13.37,5.16-24.74,12.84-34.13,23.05
		c-9.38,10.2-16.65,22.99-21.81,38.35C939.22,130.5,936.63,148.38,936.63,168.79z M993.28,149.79c0-19.7,4.57-34.01,13.72-42.93
		c9.15-8.91,21.7-13.37,37.65-13.37h39.05v150.59h-39.05c-15.95,0-28.5-4.45-37.65-13.37c-9.15-8.91-13.72-23.22-13.72-42.93V149.79
		z"/>
	<path class="st0" d="M923.26,460.46v-47.5H774.65V365.4h147.74v-49.9H761.2c-22.11,0-40.03,17.92-40.03,40.03v165.52
		c0,22.11,17.92,40.03,40.03,40.03h161.19v-53.9H774.65v-46.72H923.26z"/>
	<path class="st1" d="M706.63,434.51c-1.18-66.36-55.53-119.99-122.17-119.99H102.85c-22.11,0-40.03,17.92-40.03,40.03v164.31
		c0,22.11,17.92,40.03,40.03,40.03h480.35C651.61,558.89,707.84,502.91,706.63,434.51z M583.48,507.75H113.96V365.67h470.5
		c38.74,0,70.34,31.18,71.03,69.76C656.19,475.2,623.26,507.75,583.48,507.75z"/>
	<path class="st0" d="M938.62,507.63l110.66,0.25c12.86,0.03,23.3-10.39,23.3-23.25v0c0-12.84-10.41-23.25-23.25-23.25h-37.28
		c-40.55,0-73.43-32.88-73.43-73.43v0c0-40.55,32.88-73.43,73.43-73.43h125.13v50.77h-120.08c-12.69,0-22.97,10.28-22.97,22.97v0
		c0,12.69,10.28,22.97,22.97,22.97h44.96c41.49,0,75.12,33.63,75.12,75.12v0c0,41.49-33.63,75.12-75.12,75.12H938.62V507.63z"/>
</g>
</svg>
