<?xml version="1.0" encoding="utf-8"?>
<!-- Generator: Adobe Illustrator 28.0.0, SVG Export Plug-In . SVG Version: 6.00 Build 0)  -->
<svg version="1.1" id="Icons" xmlns="http://www.w3.org/2000/svg" xmlns:xlink="http://www.w3.org/1999/xlink" x="0px" y="0px"
	 viewBox="0 0 512 512" style="enable-background:new 0 0 512 512;" xml:space="preserve">
<style type="text/css">
	.st0{fill:#0C5464;}
</style>
<path class="st0" d="M330.7,52.62l-43.98-6.32l-19.63-39.4l0,0c-3.06-6.13-10.5-8.61-16.63-5.56c-2.4,1.2-4.35,3.15-5.56,5.56
	L225.28,46.3l-43.95,6.32c-6.76,0.97-11.45,7.22-10.48,13.98c0.39,2.72,1.68,5.24,3.66,7.15l31.74,30.64l-7.48,43.26
	c-0.82,4.63,1.08,9.33,4.9,12.08c3.81,2.8,8.89,3.18,13.07,0.97L256,140.25l39.31,20.48c6.06,3.18,13.56,0.85,16.74-5.21
	c1.27-2.42,1.71-5.2,1.24-7.9l-7.48-43.26l31.74-30.64c4.91-4.74,5.05-12.57,0.31-17.48c-1.91-1.98-4.42-3.26-7.14-3.65L330.7,52.62
	z M290.7,95.28c-2.04,1.97-2.97,4.81-2.48,7.6l6.65,38.4l-34.13-17.77c-2.94-1.54-6.45-1.54-9.39,0l-34.13,17.78l6.65-38.4
	c0.48-2.79-0.45-5.64-2.48-7.6l-28.15-27.15l38.89-5.58c0.51-0.07,1-0.19,1.48-0.36c2.17-0.73,3.96-2.28,4.99-4.33L256,22.86
	l17.46,35.04c1.26,2.51,3.68,4.25,6.46,4.65l38.86,5.6L290.7,95.28z"/>
<path class="st0" d="M141.99,109.76l-12.48-26.53l0,0c-2.61-5.54-9.21-7.93-14.76-5.32c-2.34,1.1-4.22,2.98-5.32,5.32l-12.48,26.52
	l-27.76,4.27c-4.13,0.64-7.56,3.55-8.87,7.52c-1.36,4.02-0.34,8.47,2.64,11.5l20.31,20.74l-4.82,29.43
	c-0.72,4.26,1.07,8.55,4.61,11.03c3.45,2.45,7.99,2.7,11.69,0.66l24.75-13.65l24.75,13.65c5.41,2.93,12.18,0.91,15.1-4.5
	c1.19-2.2,1.61-4.74,1.18-7.21l-4.82-29.42l20.32-20.77c2.97-3.03,3.99-7.48,2.64-11.5c-1.32-3.97-4.75-6.88-8.88-7.52
	L141.99,109.76z M140.45,144.91c-1.9,1.94-2.76,4.67-2.32,7.35l3.56,21.77l-17.6-9.7c-2.87-1.6-6.37-1.6-9.24,0l-17.57,9.7
	l3.56-21.77c0.44-2.68-0.42-5.41-2.32-7.35l-15.45-15.78l20.95-3.19c2.83-0.44,5.25-2.25,6.48-4.84l8.97-19.13l8.97,19.06
	c1.22,2.66,3.71,4.51,6.6,4.92l20.86,3.17L140.45,144.91z"/>
<path class="st0" d="M451.69,121.5c-1.32-3.97-4.75-6.88-8.88-7.52l-27.74-4.22l-12.48-26.53l0,0c-2.61-5.54-9.21-7.93-14.76-5.32
	c-2.34,1.1-4.22,2.98-5.32,5.32l-12.48,26.52l-27.76,4.27c-4.13,0.64-7.56,3.55-8.87,7.52c-1.36,4.02-0.34,8.47,2.64,11.5
	l20.32,20.77l-4.82,29.43c-0.72,4.26,1.07,8.55,4.61,11.03c3.45,2.45,7.99,2.7,11.69,0.66l24.75-13.65l24.75,13.65
	c5.41,2.93,12.18,0.91,15.1-4.5c1.19-2.2,1.61-4.74,1.18-7.21l-4.82-29.42l20.32-20.77C452.06,129.98,453.06,125.52,451.69,121.5z
	 M413.52,144.91c-1.9,1.94-2.76,4.67-2.32,7.35l3.56,21.77l-17.6-9.7c-2.87-1.6-6.37-1.6-9.24,0l-17.57,9.7l3.56-21.77
	c0.44-2.68-0.42-5.41-2.32-7.35l-15.45-15.78l20.95-3.19c2.83-0.44,5.25-2.25,6.48-4.84l8.97-19.13l8.97,19.06
	c1.22,2.66,3.71,4.51,6.6,4.92l20.86,3.17L413.52,144.91z"/>
<path class="st0" d="M491.93,198.95l-62.6,11.19c-5.44,0.96-10.24,4.12-13.29,8.73c-1.46,2.2-2.47,4.66-2.99,7.25l-12.8,2.28
	c-5.32,0.95-10.02,4.03-13.01,8.53c-1.61,2.44-2.67,5.19-3.11,8.08l-3.91,0.85c-3.18,0.76-6.54,0.14-9.24-1.71l-57.57-38.07
	c-8.91-5.87-19.9-7.66-30.22-4.93l-8.15,2.22l-53.76-14.65c-10.48-2.38-21.47-0.12-30.15,6.21l-56.78,42.62
	c-2.64,1.94-5.97,2.7-9.19,2.09l-3.83-0.73c-0.55-2.87-1.72-5.58-3.41-7.96c-3.19-4.38-8.03-7.27-13.4-8l-12.8-1.71
	c-1.95-8.13-8.69-14.23-16.97-15.36l-55.33-7.55c-9.33-1.31-17.96,5.2-19.27,14.54C0.05,213.67,0,214.47,0,215.26v189.36
	c0.02,8.53,6.31,15.74,14.75,16.92l22.56,3.08c0.93,0.13,1.87,0.19,2.82,0.2c9.81,0.01,18.2-7.04,19.89-16.7l2.91-16.26l12.73,1.71
	c0.87,0.12,1.74,0.18,2.62,0.18c7.52-0.02,14.4-4.27,17.79-10.98l7.41,1.71l-0.25,0.26c-10.92,11.5-10.54,29.66,0.85,40.7
	c5.34,5.19,12.5,8.09,19.94,8.06h0.55h0.09c0.23,15.65,13.01,28.2,28.65,28.16h0.64c0.26,15.62,13.02,28.13,28.64,28.08h0.61
	c2.06-0.06,4.11-0.35,6.11-0.85c3.15,15.58,18.34,25.65,33.92,22.5c5.74-1.16,10.99-4.05,15.05-8.28l13.76-14.33l8.48,8.12
	c11.52,11.05,29.81,10.67,40.87-0.84c0,0,0.01-0.01,0.01-0.01c3.97-4.24,6.6-9.55,7.58-15.27c15.6,3.06,30.74-7.1,33.8-22.71
	c0.06-0.3,0.11-0.61,0.16-0.91c2.01,0.37,4.04,0.55,6.08,0.52c15.93-0.35,28.57-13.55,28.22-29.49c-0.04-2.02-0.3-4.03-0.76-5.99
	c13.54-2.82,23.19-14.83,23.04-28.66c0-0.49-0.12-0.95-0.15-1.43l15.91-4.34c3.54,6.31,10.2,10.23,17.43,10.24
	c1.14,0,2.29-0.1,3.41-0.3l12.61-2.26l3.5,16.09c2.03,9.3,10.26,15.93,19.78,15.93c1.21,0,2.42-0.11,3.62-0.32l22.19-3.96
	c8.17-1.42,14.14-8.51,14.15-16.8V215.76c0-9.43-7.64-17.07-17.06-17.07C493.93,198.69,492.92,198.78,491.93,198.95z M287.57,217.6
	c5.6-1.47,11.56-0.5,16.4,2.68l57.5,38.04c6.56,4.49,14.71,6.01,22.45,4.18l2.41-0.52l24.28,109.33l-17.52,4.78
	c-0.78-1.04-1.63-2.02-2.56-2.93l-110.2-105.81c-4.17-3.99-9.75-6.17-15.52-6.05l-11.95,0.24c-5.79,0.07-11.3,2.49-15.28,6.69
	l-33.88,35.25c-3.33,3.5-7.93,5.51-12.76,5.6c-4.91,0.23-9.68-1.63-13.13-5.12c-2.82-2.68-4.56-6.31-4.88-10.19
	c-0.29-3.86,0.85-7.69,3.22-10.76l30.18-38.2c3.36-4.18,7.93-7.22,13.09-8.7L287.57,217.6z M39.65,407.71l-22.58-3.08V215.27
	l55.3,7.53c0.9,0.12,1.7,0.61,2.23,1.34c0.52,0.7,0.72,1.58,0.55,2.43l0,0L43.22,405.13c-0.26,1.69-1.83,2.84-3.52,2.59
	C39.68,407.71,39.66,407.71,39.65,407.71z M77.93,376.68l-11.95-1.65l24.46-136.76l11.78,1.59c0.79,0.11,1.5,0.54,1.96,1.19
	c0.48,0.65,0.69,1.47,0.58,2.27L81.21,374.24C80.96,375.81,79.5,376.89,77.93,376.68z M124.24,416.44c-3.1,0.1-6.11-1.08-8.31-3.26
	c-4.59-4.54-4.75-11.9-0.36-16.63l16.8-17.58c4.52-4.7,11.99-4.85,16.7-0.33c4.49,4.59,4.61,11.89,0.28,16.63l-16.84,17.54
	c-2.16,2.26-5.14,3.56-8.27,3.61V416.44z M153.6,444.59c-3.13,0.12-6.17-1.07-8.39-3.29c-4.54-4.58-4.69-11.91-0.34-16.67
	l16.8-17.51l0,0l0.09-0.12l5.54-5.77c4.53-4.69,11.99-4.84,16.7-0.33c4.49,4.59,4.59,11.89,0.24,16.61l0,0l-22.48,23.43
	C159.64,443.19,156.7,444.51,153.6,444.59z M174.47,469.33c-4.51-4.56-4.66-11.85-0.34-16.59l0,0l28.07-29.26
	c4.52-4.7,12-4.85,16.7-0.33c0,0,0,0,0,0c4.49,4.58,4.61,11.87,0.26,16.59l-28.07,29.27c-4.49,4.7-11.94,4.87-16.64,0.39
	c-0.01-0.01-0.01-0.01-0.02-0.02L174.47,469.33z M226,491.26c-4.5,4.68-11.94,4.83-16.62,0.34c-4.57-4.54-4.72-11.89-0.33-16.61l0,0
	l16.87-17.58l0.05,0.04c4.5-4.66,11.92-4.82,16.61-0.35c4.51,4.56,4.67,11.86,0.35,16.61L226,491.26z M379.08,402.08
	c-2.11,2.25-5.05,3.55-8.13,3.6h-0.27c-3.05,0-5.97-1.19-8.16-3.31c-3.4-3.26-8.8-3.15-12.07,0.25c-3.24,3.38-3.15,8.75,0.2,12.02
	l5.97,5.79c4.64,4.54,4.72,11.99,0.17,16.63c-2.14,2.19-5.05,3.45-8.11,3.53c-3.13,0.1-6.17-1.1-8.39-3.31l-5.85-5.6
	c-3.32-3.34-8.73-3.36-12.07-0.04c-3.34,3.32-3.36,8.73-0.04,12.07c0.1,0.1,0.19,0.19,0.3,0.28l0,0c2.23,2.14,3.52,5.07,3.6,8.16
	c0.18,6.49-4.94,11.9-11.43,12.08c-3.16,0.09-6.23-1.1-8.5-3.31l-5.84-5.52l-0.1-0.1c-3.47-3.19-8.87-2.97-12.06,0.5
	c-3.14,3.41-2.98,8.7,0.35,11.92l0,0c2.25,2.12,3.56,5.05,3.64,8.14c0.01,3.12-1.17,6.12-3.3,8.39c-4.52,4.69-11.99,4.83-16.68,0.32
	l-10.72-10.24c3.32-10.43,0.5-21.85-7.29-29.54c-4.28-4.08-9.71-6.73-15.56-7.6c3.23-15.42-6.66-30.53-22.07-33.76
	c-4.24-0.89-8.62-0.8-12.82,0.26c-1.06-5.76-3.89-11.04-8.1-15.11c-7.13-6.8-17.24-9.49-26.81-7.13c-1.07-5.76-3.9-11.04-8.11-15.12
	c-11.52-11.01-29.78-10.63-40.83,0.85l-2.82,2.96l-17.22-3.95L119.77,256l2.34,0.42c7.86,1.45,15.97-0.42,22.41-5.17l56.76-42.61
	c4.55-3.35,10.32-4.59,15.85-3.41l25.4,6.92l-27.61,7.49c-8.64,2.44-16.3,7.51-21.92,14.51l-30.22,38.26
	c-5.01,6.43-7.44,14.49-6.83,22.62c0.67,8.05,4.24,15.57,10.05,21.18c14.05,13.55,36.43,13.15,49.99-0.9
	c0.02-0.02,0.04-0.05,0.07-0.07l33.96-35.29c0.86-0.88,2.04-1.37,3.28-1.37l11.95-0.24c1.23-0.04,2.43,0.42,3.31,1.28L378.88,385.6
	c1.13,1.09,2.03,2.4,2.62,3.86c0.6,1.36,0.89,2.84,0.85,4.33C382.42,396.88,381.24,399.87,379.08,402.08z M433.19,380.88
	c-1.57,0.25-3.06-0.76-3.41-2.3l-28.82-129.71c-0.17-0.82,0-1.68,0.47-2.38c0.43-0.65,1.1-1.1,1.87-1.25l11.76-2.08l30.03,135.68
	L433.19,380.88z M494.93,406.37l-22.19,3.96c-1.72,0.32-3.38-0.78-3.75-2.49l-39.18-176.98c-0.2-0.88-0.04-1.81,0.46-2.56
	c0.48-0.73,1.24-1.23,2.1-1.38l62.55-11.18V406.37z"/>
</svg>
