<?xml version="1.0" encoding="utf-8"?>
<!-- Generator: Adobe Illustrator 28.0.0, SVG Export Plug-In . SVG Version: 6.00 Build 0)  -->
<svg version="1.1" id="Layer_1" xmlns="http://www.w3.org/2000/svg" xmlns:xlink="http://www.w3.org/1999/xlink" x="0px" y="0px"
	 viewBox="0 0 512 512" style="enable-background:new 0 0 512 512;" xml:space="preserve">
<style type="text/css">
	.st0{fill:#48BDA6;}
</style>
<g>
	<g>
		<path class="st0" d="M492.07,417.38c-3.57-5.43-9.59-8.7-16.06-8.7h-1.78V148.3c0-21.93-13.76-40.67-33.09-48.18
			c20.97-40.45,23.2-70.26,5.28-81.49c-7.29-4.61-23.35-8.77-49,14.95c-3.05,2.83-3.2,7.51-0.37,10.56
			c2.75,2.97,7.44,3.2,10.48,0.37c13.16-12.19,24.76-17.18,31.01-13.31c8.55,5.43,9.37,32.34-23.42,84.47
			c-8.85,14.05-18.89,27.81-29.15,40.3l-37.1-23.27c6.77-14.65,14.8-29.74,23.64-43.79c4.68-7.36,9.37-14.28,13.98-20.52
			c2.45-3.27,1.78-7.96-1.49-10.41s-7.96-1.78-10.41,1.56c-4.83,6.47-9.81,13.76-14.65,21.41c-3.2,5.13-6.25,10.33-9.22,15.61H89.52
			c-28.55,0-51.75,23.2-51.75,51.75v81.42c0,4.09,3.35,7.44,7.44,7.44s7.44-3.35,7.44-7.44V148.3c0-20.3,16.51-36.88,36.88-36.88
			H342.7c-3.42,6.69-6.54,13.46-9.52,20.08c-0.22,0.3-0.52,0.52-0.67,0.89c-1.34,2.97-2.45,5.8-3.64,8.7l-213.92-0.22
			c-17.99,0-32.57,14.65-32.57,32.57v175.03c0,6.32,1.86,12.49,5.28,17.84c6.02,9.29,16.21,14.8,27.29,14.8h282.17
			c17.92,0,32.57-14.57,32.64-32.49l0.07-84.32c0-4.09-3.35-7.44-7.44-7.44s-7.44,3.27-7.44,7.44l-0.07,84.24
			c-0.07,9.74-8.03,17.7-17.77,17.7H285.52l-46.47-74.43c-3.2-4.98-8.62-7.96-14.5-7.96c-5.95,0-11.3,2.97-14.5,7.96l-12.64,20.22
			l-26.17-42.75c-3.12-5.06-8.62-8.1-14.57-8.1h-0.07c-5.95,0-11.38,3.05-14.42,8.1l-44.91,73.31V173.43c0-9.74,7.96-17.7,17.7-17.7
			l208.12,0.22c-2.83,8.03-5.06,15.39-6.54,22.16c-5.28-0.45-10.48-0.07-15.24,1.49c-9.52,3.05-25.65,12.86-27.06,44.46
			c-0.52,11.67-4.31,21.04-11.15,27.73c-4.09,4.01-5.58,9.67-4.16,15.17c1.49,5.5,5.72,9.89,11.23,11.38
			c6.69,1.78,15.09,3.27,24.39,3.27c20.74,0,45.58-7.73,63.72-37.7c7.44-12.19,7.44-26.25,0.52-38.81
			c10.41-8.25,22.23-20.07,34.5-34.5c0.22-0.22,0.3-0.52,0.45-0.82c3.42-4.01,6.84-8.18,10.19-12.49c6.54,2.6,11.15,9,11.15,16.43
			l-0.07,54.06c0,4.09,3.35,7.44,7.44,7.44c4.16,0,7.44-3.35,7.44-7.44l0.07-54.06c0-12.27-6.92-22.9-17.03-28.4
			c5.13-7.14,10.19-14.35,14.87-21.71c2.16-3.5,4.16-6.84,6.1-10.19c14.8,4.83,25.5,18.51,25.5,34.87v260.39H321.58
			c-8.48,0-16.21,4.24-20.82,11.3l-8.33,12.79c-1.78,2.83-4.91,4.46-8.33,4.46h-52.57c-3.42,0-6.54-1.64-8.33-4.46l-8.33-12.79
			c-4.61-7.06-12.34-11.3-20.82-11.3H52.64V268.6c0-4.09-3.35-7.44-7.44-7.44s-7.44,3.35-7.44,7.44v140.08h-1.78
			c-6.47,0-12.49,3.27-16.06,8.7s-4.24,12.19-1.71,18.22l21.19,49.67c2.97,7.06,9.96,11.67,17.77,11.67h74.8
			c4.09,0,7.44-3.27,7.44-7.44c0-4.09-3.35-7.44-7.44-7.44h-74.8c-1.79,0-3.42-1.04-4.09-2.68L31.9,429.73
			c-0.82-1.93,0-3.57,0.45-4.16c0.37-0.59,1.49-2.01,3.64-2.01h158.08c3.42,0,6.54,1.71,8.33,4.54l8.33,12.79
			c4.61,7.06,12.34,11.23,20.82,11.23h52.57c8.48,0,16.21-4.16,20.82-11.23l8.33-12.79c1.78-2.83,4.91-4.54,8.33-4.54h154.43
			c2.16,0,3.27,1.41,3.64,2.01c0.45,0.59,1.26,2.23,0.45,4.16l-21.19,49.67c-0.67,1.64-2.3,2.68-4.01,2.68H190.35
			c-4.09,0-7.44,3.35-7.44,7.44c0,4.16,3.35,7.44,7.44,7.44H454.9c7.73,0,14.65-4.54,17.7-11.67l21.19-49.67
			C496.31,429.58,495.64,422.81,492.07,417.38L492.07,417.38z M154.8,277.08c0.59-0.89,1.41-1.04,1.86-1.04
			c0.45-0.15,1.34,0.15,1.93,1.04l27.29,44.61c2.45,4.02,6.69,6.47,11.45,6.47c4.98,0,9-2.31,11.52-6.32l13.83-22.08
			c0.52-0.89,1.41-1.04,1.86-1.04s1.34,0.15,1.86,0.97l41.56,66.55H114.95c-4.54,0-8.7-1.64-11.9-4.61L154.8,277.08z M345.52,236.18
			c-20.15,33.39-50.04,33.53-71.53,27.73c-0.45-0.07-0.59-0.45-0.67-0.74c-0.15-0.45,0.07-0.59,0.15-0.67
			c6.62-6.54,14.72-18.37,15.61-37.77c0.52-11.82,3.87-26.84,16.8-31.01c11.53-3.72,27.73,2.53,36.95,14.13
			C347.01,213.21,352.96,223.99,345.52,236.18z M372.29,171.79c-7.66,8.25-15.02,15.39-21.64,20.82l-19.48-12.34
			c2.08-8.7,5.58-19.18,10.11-30.41c0,0.07,0.07,0.07,0.07,0.07c0.45-1.12,1.04-2.3,1.49-3.49l33.31,20.89
			C374.89,168.82,373.55,170.38,372.29,171.79L372.29,171.79z"/>
		<path class="st0" d="M174.9,215.76c0,15.77,12.83,28.6,28.6,28.6c15.78,0,28.61-12.83,28.61-28.6s-12.83-28.6-28.61-28.6
			C187.73,187.16,174.9,199.99,174.9,215.76z M217.24,215.76c0,7.57-6.16,13.73-13.74,13.73c-7.57,0-13.73-6.16-13.73-13.73
			c0-7.57,6.16-13.73,13.73-13.73S217.24,208.19,217.24,215.76z"/>
	</g>
</g>
</svg>
